<svg xmlns="http://www.w3.org/2000/svg" width="25.718" height="25.72" viewBox="0 0 25.718 25.72">
  <metadata><?xpacket begin="﻿" id="W5M0MpCehiHzreSzNTczkc9d"?>
<x:xmpmeta xmlns:x="adobe:ns:meta/" x:xmptk="Adobe XMP Core 5.6-c138 79.159824, 2016/09/14-01:09:01        ">
   <rdf:RDF xmlns:rdf="http://www.w3.org/1999/02/22-rdf-syntax-ns#">
      <rdf:Description rdf:about=""/>
   </rdf:RDF>
</x:xmpmeta>
                                                                                                    
                                                                                                    
                                                                                                    
                                                                                                    
                                                                                                    
                                                                                                    
                                                                                                    
                                                                                                    
                                                                                                    
                                                                                                    
                                                                                                    
                                                                                                    
                                                                                                    
                                                                                                    
                                                                                                    
                                                                                                    
                                                                                                    
                                                                                                    
                                                                                                    
                                                                                                    
                           
<?xpacket end="w"?></metadata>
<defs>
    <style>
      .cls-1 {
        fill: #fff;
        fill-rule: evenodd;
      }
    </style>
  </defs>
  <path id="_" data-name="" class="cls-1" d="M954.7,2251.83a4.3,4.3,0,1,1,3.03-1.26A4.122,4.122,0,0,1,954.7,2251.83Zm0-10.88a6.564,6.564,0,1,0,4.671,1.92A6.367,6.367,0,0,0,954.7,2240.95Zm6.864-1.81a1.54,1.54,0,1,0,1.088.45A1.486,1.486,0,0,0,961.567,2239.14Zm-3.817-2.15c0.4,0,.94.02,1.616,0.05a12.52,12.52,0,0,1,1.724.17,5.9,5.9,0,0,1,1.2.31,4.209,4.209,0,0,1,1.473.97,4.271,4.271,0,0,1,.971,1.47,6.547,6.547,0,0,1,.31,1.2,13.181,13.181,0,0,1,.167,1.72c0.028,0.68.045,1.21,0.051,1.62s0,0.99,0,1.76-0.009,1.21-.009,1.28,0,0.51.009,1.28,0,1.37,0,1.77-0.023.94-.051,1.62a13.181,13.181,0,0,1-.167,1.72,7.009,7.009,0,0,1-.31,1.2,4.271,4.271,0,0,1-.971,1.47,4.352,4.352,0,0,1-1.473.97,6.646,6.646,0,0,1-1.2.31,14.308,14.308,0,0,1-1.724.17c-0.676.03-1.214,0.04-1.616,0.05h-1.766c-0.776-.01-1.2-0.01-1.281-0.01s-0.5,0-1.28.01h-1.767c-0.4-.01-0.94-0.02-1.615-0.05a14.308,14.308,0,0,1-1.724-.17,6.6,6.6,0,0,1-1.2-.31,4.347,4.347,0,0,1-1.474-.97,4.285,4.285,0,0,1-.971-1.47,6.923,6.923,0,0,1-.309-1.2,13.163,13.163,0,0,1-.168-1.72q-0.042-1.02-.05-1.62t0-1.77c0.006-.77.008-1.2,0.008-1.28s0-.5-0.008-1.28-0.006-1.36,0-1.76,0.022-.94.05-1.62a13.163,13.163,0,0,1,.168-1.72,6.474,6.474,0,0,1,.309-1.2,4.285,4.285,0,0,1,.971-1.47,4.2,4.2,0,0,1,1.474-.97,5.868,5.868,0,0,1,1.2-.31,12.52,12.52,0,0,1,1.724-.17c0.675-.03,1.214-0.05,1.615-0.05s0.991-.01,1.767,0,1.2,0.01,1.28.01,0.5-.01,1.281-0.01S957.348,2236.98,957.75,2236.99Zm9.727,5.25a7.125,7.125,0,0,0-7.467-7.47c-0.982-.06-2.751-0.08-5.307-0.08s-4.325.02-5.307,0.08a7.124,7.124,0,0,0-7.466,7.47c-0.056.98-.084,2.75-0.084,5.3s0.028,4.33.084,5.31a7.124,7.124,0,0,0,7.466,7.47c0.982,0.05,2.751.08,5.307,0.08s4.325-.03,5.307-0.08a7.125,7.125,0,0,0,7.467-7.47q0.083-1.47.083-5.31c0-2.55-.028-4.32-0.083-5.3h0Z" transform="translate(-941.844 -2234.69)"/>
</svg>
