<svg xmlns="http://www.w3.org/2000/svg" width="26.37" height="21.43" viewBox="0 0 26.37 21.43">
  <metadata><?xpacket begin="﻿" id="W5M0MpCehiHzreSzNTczkc9d"?>
<x:xmpmeta xmlns:x="adobe:ns:meta/" x:xmptk="Adobe XMP Core 5.6-c138 79.159824, 2016/09/14-01:09:01        ">
   <rdf:RDF xmlns:rdf="http://www.w3.org/1999/02/22-rdf-syntax-ns#">
      <rdf:Description rdf:about=""/>
   </rdf:RDF>
</x:xmpmeta>
                                                                                                    
                                                                                                    
                                                                                                    
                                                                                                    
                                                                                                    
                                                                                                    
                                                                                                    
                                                                                                    
                                                                                                    
                                                                                                    
                                                                                                    
                                                                                                    
                                                                                                    
                                                                                                    
                                                                                                    
                                                                                                    
                                                                                                    
                                                                                                    
                                                                                                    
                                                                                                    
                           
<?xpacket end="w"?></metadata>
<defs>
    <style>
      .cls-1 {
        fill: #fff;
        fill-rule: evenodd;
      }
    </style>
  </defs>
  <path id="_" data-name="" class="cls-1" d="M1046.95,2242.06a5.181,5.181,0,0,0,2.38-2.98,10.6,10.6,0,0,1-3.43,1.31,5.407,5.407,0,0,0-9.36,3.7,6.011,6.011,0,0,0,.13,1.24,14.962,14.962,0,0,1-6.21-1.67,15.475,15.475,0,0,1-4.94-3.99,5.458,5.458,0,0,0-.08,5.31,5.414,5.414,0,0,0,1.76,1.92,5.283,5.283,0,0,1-2.45-.69v0.07a5.178,5.178,0,0,0,1.24,3.44,5.316,5.316,0,0,0,3.1,1.87,5.7,5.7,0,0,1-1.42.18,7.593,7.593,0,0,1-1.02-.08,5.424,5.424,0,0,0,5.05,3.75,10.573,10.573,0,0,1-6.71,2.31,10.466,10.466,0,0,1-1.31-.07,15.01,15.01,0,0,0,8.31,2.43,15.7,15.7,0,0,0,5.4-.91,13.724,13.724,0,0,0,4.32-2.45,16.378,16.378,0,0,0,5.03-7.68,15.517,15.517,0,0,0,.63-4.35c0-.31,0-0.54-0.01-0.7a11.407,11.407,0,0,0,2.71-2.79,10.95,10.95,0,0,1-3.12.83h0Z" transform="translate(-1023.69 -2238.69)"/>
</svg>
