<svg xmlns="http://www.w3.org/2000/svg" width="11.876" height="17.13" viewBox="0 0 11.876 17.13">
  <metadata><?xpacket begin="﻿" id="W5M0MpCehiHzreSzNTczkc9d"?>
<x:xmpmeta xmlns:x="adobe:ns:meta/" x:xmptk="Adobe XMP Core 5.6-c138 79.159824, 2016/09/14-01:09:01        ">
   <rdf:RDF xmlns:rdf="http://www.w3.org/1999/02/22-rdf-syntax-ns#">
      <rdf:Description rdf:about=""/>
   </rdf:RDF>
</x:xmpmeta>
                                                                                                    
                                                                                                    
                                                                                                    
                                                                                                    
                                                                                                    
                                                                                                    
                                                                                                    
                                                                                                    
                                                                                                    
                                                                                                    
                                                                                                    
                                                                                                    
                                                                                                    
                                                                                                    
                                                                                                    
                                                                                                    
                                                                                                    
                                                                                                    
                                                                                                    
                                                                                                    
                           
<?xpacket end="w"?></metadata>
<defs>
    <style>
      .cls-1 {
        fill: #fff;
        fill-rule: evenodd;
      }
    </style>
  </defs>
  <path id="В" class="cls-1" d="M867.057,2257.96h5.976a6.607,6.607,0,0,0,4.342-1.29,4.4,4.4,0,0,0,1.553-3.58q0-3.435-3.9-4.11v-0.11a4.124,4.124,0,0,0,2.479-1.29,3.708,3.708,0,0,0,.85-2.51,3.593,3.593,0,0,0-1.524-3.22,9.129,9.129,0,0,0-4.934-1.02h-4.839v17.13Zm1.992-15.41h2.93a6.4,6.4,0,0,1,3.281.64,2.265,2.265,0,0,1,1.031,2.08,2.547,2.547,0,0,1-.926,2.23,5.355,5.355,0,0,1-3.035.66h-3.281v-5.61Zm3.41,7.3a5.732,5.732,0,0,1,3.264.75,2.664,2.664,0,0,1,1.072,2.35,2.964,2.964,0,0,1-1.049,2.51,5.126,5.126,0,0,1-3.123.8h-3.574v-6.41h3.41Z" transform="translate(-867.062 -2240.84)"/>
</svg>
